<svg version="1.1" id="Layer_1" xmlns="http://www.w3.org/2000/svg" xmlns:xlink="http://www.w3.org/1999/xlink" x="0px" y="0px"
	 width="100%" viewBox="0 0 154 154" enable-background="new 0 0 154 154" xml:space="preserve">
<path fill="#F9FBFB" opacity="1.000000" stroke="none" 
	d="
M143.994125,94.005058 
	C142.917572,94.000916 141.841003,93.996773 140.281036,93.758469 
	C139.463409,93.330696 139.202164,93.421082 139.013885,93.795486 
	C138.462387,93.937355 137.910889,94.079231 137.359406,94.221100 
	C137.368607,94.433784 137.377823,94.646461 137.387039,94.859146 
	C138.375595,94.926445 139.364166,94.993752 140.818878,95.361969 
	C141.477921,95.841904 141.704117,95.953545 141.963562,95.997826 
	C142.148209,96.009140 142.332840,96.020462 142.897278,96.316566 
	C143.490311,96.809563 143.744080,96.937302 144.038345,96.984589 
	C149.358917,99.264923 146.096161,103.842339 147.267944,108.078552 
	C144.289413,107.710815 141.837875,107.408150 139.009155,107.058914 
	C139.009155,109.474663 138.971313,111.775345 139.017715,114.074318 
	C139.093918,117.849167 137.377853,119.063675 134.074966,117.268166 
	C125.553345,112.635674 116.415161,111.368721 106.909592,112.022095 
	C103.809654,112.235168 100.573250,112.239296 97.667038,113.172714 
	C87.573936,116.414467 77.755730,115.972107 67.500397,113.356010 
	C55.364166,110.260101 43.165684,111.059265 31.607126,116.685143 
	C30.060356,117.437996 28.312119,117.776924 26.073639,118.494614 
	C26.073639,114.247368 26.073639,110.648064 26.073639,106.881882 
	C23.277903,107.367775 20.922894,107.777069 18.551001,108.189301 
	C17.100483,99.095879 17.100483,99.095879 26.333973,94.008644 
	C20.979931,94.456360 16.358118,94.842842 10.090206,95.366974 
	C11.584592,90.069504 12.820982,85.686600 14.150358,80.974068 
	C18.757698,80.974068 23.138792,80.974068 27.519884,80.974068 
	C27.526175,80.765556 27.532463,80.557037 27.538754,80.348526 
	C20.062935,79.207672 12.587116,78.066818 5.276565,76.951180 
	C5.276565,73.295311 5.276565,70.205307 5.276565,66.838203 
	C32.350285,71.494766 59.513241,74.899170 80.798904,95.948524 
	C79.135269,96.730980 78.244370,97.149994 78.120605,97.208199 
	C78.907051,98.956696 79.667046,100.646385 81.002502,103.615509 
	C78.203461,102.814888 76.865089,102.468147 75.551064,102.045647 
	C74.335388,101.654778 73.145782,101.182793 73.136993,101.179596 
	C71.109619,102.071442 70.025795,102.980927 68.980301,102.938812 
	C61.474998,102.636520 53.977482,102.140930 46.419044,102.328674 
	C58.439518,102.595062 70.029152,104.814720 81.403587,108.646751 
	C83.172180,109.242592 85.652031,107.476418 87.853073,107.082443 
	C97.948486,105.275414 108.061707,103.567863 118.324554,102.536980 
	C112.780327,102.536980 107.234482,102.616638 101.692535,102.504150 
	C98.822182,102.445892 95.958725,102.047226 93.046227,101.398010 
	C93.000298,100.993668 92.932800,101.078522 93.352165,101.077850 
	C94.888878,100.874481 96.023209,100.738487 97.120995,100.458954 
	C110.737350,96.991867 124.366669,96.677116 138.146637,100.362381 
	C138.506165,100.300369 138.738663,100.109505 138.987366,99.554474 
	C138.326523,98.695534 137.649506,98.200760 136.845978,97.539261 
	C136.508163,97.176353 136.260101,97.055763 135.597900,97.004654 
	C134.474518,96.921417 133.728546,96.844292 132.849747,96.587646 
	C132.492401,96.196266 132.227142,96.069710 131.596924,96.014252 
	C130.849045,95.931992 130.425430,95.863922 129.949646,95.494308 
	C129.264008,94.796494 128.630539,94.400230 127.567444,93.999527 
	C125.418526,93.995499 123.699249,93.995911 121.661545,93.994019 
	C120.572327,94.241318 119.801529,94.490913 118.611549,94.850594 
	C116.458847,94.975662 114.725319,94.990654 112.815048,95.052124 
	C112.403343,95.191994 112.220680,95.347015 111.695389,95.723228 
	C109.882423,95.927414 108.464386,95.972038 106.845451,96.073242 
	C106.381462,96.248016 106.177612,96.431900 105.672501,96.803139 
	C104.551880,96.953613 103.791786,96.982437 102.832077,97.070831 
	C102.372002,97.252693 102.171028,97.439117 101.660767,97.824417 
	C99.557289,98.316383 97.822578,98.673607 95.872589,99.092178 
	C95.376755,99.285629 95.163681,99.488579 94.697250,99.855743 
	C93.931458,99.971199 93.486488,99.993294 92.836533,100.078476 
	C92.365120,100.271729 92.161911,100.467499 92.021927,100.728882 
	C91.863113,100.807190 91.704300,100.885498 91.084190,101.046799 
	C90.366844,101.253296 90.169365,101.439064 90.030449,101.687096 
	C89.602890,101.783974 89.175331,101.880852 88.198151,102.070343 
	C87.365891,102.305428 87.153854,102.518227 87.012398,102.801376 
	C86.841675,102.860886 86.670959,102.920395 86.100563,102.627151 
	C85.460655,101.498947 85.220436,100.723495 84.980217,99.948036 
	C85.622414,99.178482 86.264618,98.408928 87.292801,97.290115 
	C92.069054,95.015709 96.451546,93.072548 100.852715,91.172668 
	C103.219109,90.151161 105.617561,89.203903 108.326057,88.122879 
	C109.103317,88.013680 109.556076,88.004753 110.198730,87.935806 
	C110.636215,87.756096 110.826508,87.575897 111.343491,87.189888 
	C112.822083,87.029602 113.916687,87.014626 115.201309,86.938126 
	C115.638634,86.755272 115.829521,86.574387 116.351410,86.190582 
	C117.840370,86.034737 118.941887,86.022270 120.362320,86.009674 
	C121.447372,85.746796 122.213524,85.484055 123.388077,85.116684 
	C125.201447,85.005898 126.606415,84.999748 128.278839,84.990471 
	C129.014008,84.770134 129.481720,84.552933 130.321533,84.209984 
	C131.469406,84.140076 132.245148,84.195908 133.117554,84.384369 
	C133.214188,84.516983 133.658005,84.572563 133.658005,84.572563 
	C133.658005,84.572563 133.983459,84.224632 134.431274,84.116455 
	C138.114120,84.008286 141.349136,84.008286 144.801437,84.008286 
	C144.488586,83.544586 144.409424,83.301064 144.302917,83.288467 
	C142.871185,83.118996 141.435654,82.981728 140.061249,82.516815 
	C140.810791,81.797081 141.500107,81.397018 142.509018,80.997017 
	C145.225540,81.085388 147.622467,81.173698 150.103333,81.414330 
	C150.331696,81.756615 150.515274,81.894409 150.851318,82.357590 
	C150.972565,83.523369 150.980484,84.311600 151.086121,85.294510 
	C151.358276,85.732948 151.585632,85.907928 152.174316,86.036537 
	C152.666565,86.152214 152.850403,86.245491 153.104797,86.476517 
	C153.303513,86.785515 153.469528,86.903549 153.828308,87.289734 
	C154.322159,87.740723 154.661087,87.870361 155.000000,88.000000 
	C155.000000,90.041664 155.000000,92.083336 155.000000,94.562500 
	C152.614563,94.990410 150.229141,94.980827 147.164627,94.640854 
	C145.655075,94.208664 144.824600,94.106865 143.994125,94.005058 
M44.523628,97.990944 
	C52.251286,98.483315 59.978939,98.975685 67.388313,99.447777 
	C52.534790,93.360527 33.043636,93.199799 25.749125,99.412506 
	C31.826485,98.927368 37.684002,98.459785 44.523628,97.990944 
M32.268410,82.714165 
	C30.045399,82.916718 27.822386,83.119270 25.599375,83.321823 
	C25.680033,83.169456 25.760693,83.017090 25.841351,82.864723 
	C38.464729,85.025101 51.088108,87.185486 63.711487,89.345871 
	C56.578091,86.769035 49.295471,84.736504 41.933701,83.049332 
	C38.755394,82.320930 35.413448,82.306564 32.268410,82.714165 
z"/>
<path fill="#F7FAFA" opacity="1.000000" stroke="none" 
	d="
M142.189423,80.996948 
	C141.500107,81.397018 140.810791,81.797081 139.619873,82.590363 
	C127.641228,80.702225 116.965096,83.606087 105.310852,87.831238 
	C107.016228,88.079628 107.508888,88.151390 108.001549,88.223145 
	C105.617561,89.203903 103.219109,90.151161 100.852715,91.172668 
	C96.451546,93.072548 92.069054,95.015709 87.307304,96.982101 
	C86.515251,96.274483 85.580048,95.028580 85.751289,94.851280 
	C88.334610,92.176498 90.746208,89.155350 93.812134,87.158028 
	C108.043060,77.887199 124.040771,73.206009 140.538269,70.033218 
	C145.029938,69.169373 149.591049,68.666519 154.560150,67.999001 
	C155.000000,71.030594 155.000000,74.061188 154.564117,77.544617 
	C150.033249,78.537979 145.570999,77.616798 142.189423,80.996948 
z"/>
<path fill="#FDFFFF" opacity="1.000000" stroke="none" 
	d="
M116.813309,32.339943 
	C117.245605,32.695942 117.410263,32.749733 117.540710,32.848633 
	C121.507782,35.856407 118.278122,38.808651 116.608269,40.457535 
	C113.861938,43.169407 113.303917,49.133793 107.372131,47.708546 
	C106.665779,47.538830 106.200165,46.541237 105.506851,46.117241 
	C94.234924,39.223831 94.184265,39.200417 101.170090,28.511074 
	C102.748940,26.095211 104.694695,24.835207 107.735718,27.117523 
	C110.401604,29.118296 113.578522,30.438148 116.813309,32.339943 
z"/>
<path fill="#FDFEFF" opacity="1.000000" stroke="none" 
	d="
M48.231632,42.639297 
	C47.264835,41.292820 46.499249,40.258743 45.738441,39.221157 
	C42.988724,35.471096 43.460411,33.407692 47.451756,31.088676 
	C50.083549,29.559578 52.800125,28.100687 55.177475,26.227924 
	C58.372753,23.710842 60.252552,25.009422 61.846943,27.938782 
	C62.686596,29.481470 63.269707,31.188747 64.259819,32.620335 
	C68.939354,39.386383 67.534416,37.935688 62.061329,41.967075 
	C61.164783,42.627457 59.709591,42.703224 59.060459,43.497143 
	C55.191753,48.228752 51.750381,47.500443 48.231632,42.639297 
z"/>
<path fill="#FBFEFE" opacity="1.000000" stroke="none" 
	d="
M98.928436,59.015541 
	C97.705994,63.146713 95.483757,63.819206 92.267349,61.700489 
	C91.863976,61.434776 91.430237,61.187931 90.976601,61.029839 
	C84.191132,58.665138 83.021820,53.490658 88.184669,48.366402 
	C88.825478,47.730381 90.048073,46.881687 90.619698,47.105518 
	C94.117561,48.475166 97.772171,49.764477 100.732445,51.950207 
	C101.426674,52.462791 99.648430,56.324001 98.928436,59.015541 
z"/>
<path fill="#FDFFFF" opacity="1.000000" stroke="none" 
	d="
M88.103027,35.020477 
	C85.184204,35.692135 82.728333,36.537579 80.201813,36.945553 
	C77.056862,37.453384 74.957054,36.937687 74.872307,32.683170 
	C74.730797,25.579306 74.379425,25.507647 82.927734,24.046429 
	C84.589500,23.762373 87.805046,24.060070 87.914787,24.587006 
	C88.620636,27.976072 91.637878,31.392183 88.103027,35.020477 
z"/>
<path fill="#FDFFFF" opacity="1.000000" stroke="none" 
	d="
M64.649246,57.157051 
	C60.761669,51.938583 60.823135,51.707073 66.520775,48.834675 
	C67.093376,48.546009 67.657730,48.238209 68.243385,47.978729 
	C70.151291,47.133400 73.535614,45.313786 73.748596,45.628857 
	C75.499115,48.218372 77.060562,51.108418 77.796219,54.122822 
	C78.074631,55.263657 76.308449,57.330017 74.987198,58.332722 
	C73.099815,59.765053 70.764732,60.607445 68.152695,61.940769 
	C67.136139,60.522209 66.027962,58.975803 64.649246,57.157051 
z"/>
<path fill="#FAFEFE" opacity="1.000000" stroke="none" 
	d="
M76.612427,71.222572 
	C74.952339,68.675179 75.363457,66.817963 78.774605,63.915333 
	C79.837189,63.011150 82.159653,62.746632 83.536957,63.232857 
	C86.191193,64.169876 88.381546,67.408516 91.799599,63.229263 
	C92.309372,65.142738 92.615868,66.293190 92.922356,67.443634 
	C91.786385,67.550034 90.650406,67.656425 89.312950,67.781693 
	C88.831528,68.881714 88.391998,70.673584 87.378807,72.040115 
	C85.141685,75.057442 82.529289,76.641762 79.365799,72.936256 
	C78.775337,72.244621 77.764458,71.911911 76.612427,71.222572 
z"/>
<path fill="#FCFEFE" opacity="1.000000" stroke="none" 
	d="
M33.002342,51.211475 
	C33.462608,49.148952 33.925003,47.526211 34.414104,45.809742 
	C38.206505,46.698566 41.466385,47.462589 44.690880,48.218315 
	C44.652565,55.213387 42.754704,57.853912 38.283997,58.052052 
	C33.431068,58.267132 32.381386,55.747578 33.002342,51.211475 
z"/>
<path fill="#FCFEFE" opacity="1.000000" stroke="none" 
	d="
M128.003448,49.908653 
	C130.186905,57.621479 129.629639,58.137470 119.416595,57.918781 
	C119.222000,57.153526 119.061050,56.264942 118.771103,55.420654 
	C116.358765,48.396187 118.358246,45.617100 125.792969,46.157524 
	C126.605598,46.216595 127.269608,48.320305 128.003448,49.908653 
z"/>
<path fill="#FCFEFE" opacity="1.000000" stroke="none" 
	d="
M106.028633,60.002232 
	C108.070541,58.083797 110.125275,56.556618 112.180008,55.029442 
	C113.453339,56.998676 116.227325,59.703148 115.695755,60.788109 
	C114.491829,63.245403 111.658531,64.904404 109.259583,67.096588 
	C107.818314,64.094528 106.929886,62.244007 106.028633,60.002232 
z"/>
<path fill="#F9FDFD" opacity="1.000000" stroke="none" 
	d="
M52.222202,53.355515 
	C58.078297,56.394508 58.078297,56.394508 53.338688,64.897583 
	C47.457878,63.591610 47.251488,63.132187 49.987549,57.917515 
	C50.718166,56.525024 51.300838,55.054905 52.222202,53.355515 
z"/>
<path fill="#F9FDFD" opacity="1.000000" stroke="none" 
	d="
M67.976402,74.119034 
	C72.741173,74.040565 73.422806,78.663933 75.871933,81.208580 
	C76.118050,81.464294 74.972076,83.560730 74.057930,84.266060 
	C73.385605,84.784828 71.828217,84.819534 71.024193,84.393127 
	C66.917084,82.214897 66.353546,79.564064 68.369438,74.345078 
	C68.052406,74.038300 67.976402,74.119034 67.976402,74.119034 
z"/>
<path fill="#F9FDFD" opacity="1.000000" stroke="none" 
	d="
M103.864342,66.995636 
	C105.010262,68.008461 106.475624,69.838120 106.390999,69.912865 
	C104.349594,71.715874 102.293343,73.669861 99.863647,74.752182 
	C99.224586,75.036858 97.337181,72.519112 96.023041,71.288300 
	C98.502586,69.857162 100.982132,68.426025 103.864342,66.995636 
z"/>
<path fill="#FDFEFF" opacity="1.000000" stroke="none" 
	d="
M68.092758,74.000290 
	C60.912003,75.973808 60.711613,75.764496 61.168365,66.687660 
	C67.069138,65.327263 67.967140,66.190308 67.987663,73.685707 
	C67.976402,74.119034 68.052406,74.038300 68.092758,74.000290 
z"/>
<path fill="#F9FDFD" opacity="1.000000" stroke="none" 
	d="
M82.808701,42.700005 
	C87.824623,42.294617 85.935852,46.033413 85.758980,47.941235 
	C85.653816,49.075638 83.015770,50.942505 81.785797,50.750938 
	C80.372536,50.530830 79.256836,48.400219 78.011894,47.099461 
	C79.515862,45.727459 81.019821,44.355457 82.808701,42.700005 
z"/>
<path fill="#FDFEFF" opacity="1.000000" stroke="none" 
	d="
M82.939270,82.025131 
	C84.542641,82.805122 85.762207,83.574348 87.189102,84.474342 
	C86.288277,86.337547 85.468933,88.032219 84.098610,90.866493 
	C82.001640,89.568878 80.014336,88.339134 78.027039,87.109383 
	C79.536514,85.411034 81.045990,83.712692 82.939270,82.025131 
z"/>
<path fill="#FCFEFE" opacity="1.000000" stroke="none" 
	d="
M91.208054,75.956947 
	C92.722336,75.982414 93.848831,76.066666 94.975334,76.150925 
	C93.537956,78.350876 92.245361,80.681038 90.508835,82.611954 
	C90.245018,82.905289 87.920792,81.345634 85.967117,80.344612 
	C88.175667,78.374657 89.497963,77.195198 91.208054,75.956947 
z"/>
<path fill="#F7FAFA" opacity="1.000000" stroke="none" 
	d="
M84.661392,100.122299 
	C85.220436,100.723495 85.460655,101.498947 85.840317,102.550888 
	C85.434029,101.983765 84.888298,101.140167 84.661392,100.122299 
z"/>
<path fill="#F7FAFA" opacity="1.000000" stroke="none" 
	d="
M144.169037,94.293747 
	C144.824600,94.106865 145.655075,94.208664 146.719574,94.521896 
	C146.083694,94.683037 145.213821,94.632736 144.169037,94.293747 
z"/>
<path fill="#F7FAFA" opacity="1.000000" stroke="none" 
	d="
M87.270653,102.839905 
	C87.153854,102.518227 87.365891,102.305428 87.866722,102.095139 
	C87.899582,102.311028 87.714241,102.594734 87.270653,102.839905 
z"/>
<path fill="#F7FAFA" opacity="1.000000" stroke="none" 
	d="
M90.264603,101.736221 
	C90.169365,101.439064 90.366844,101.253296 90.819458,101.068390 
	C90.958115,101.342529 90.785690,101.601982 90.264603,101.736221 
z"/>
<path fill="#F7FAFA" opacity="1.000000" stroke="none" 
	d="
M92.289230,100.778427 
	C92.161911,100.467499 92.365120,100.271729 92.748329,100.338028 
	C92.887688,100.715820 92.910248,100.897171 92.932800,101.078522 
	C92.932800,101.078522 93.000298,100.993668 93.045166,100.963287 
	C92.912216,100.897934 92.734383,100.862953 92.289230,100.778427 
z"/>
<path fill="#F7FAFA" opacity="1.000000" stroke="none" 
	d="
M143.955795,96.751007 
	C143.744080,96.937302 143.490311,96.809563 143.152649,96.425064 
	C143.399323,96.057152 143.680984,96.146706 143.955795,96.751007 
z"/>
<path fill="#F7FAFA" opacity="1.000000" stroke="none" 
	d="
M139.254456,93.860947 
	C139.202164,93.421082 139.463409,93.330696 139.888245,93.665131 
	C139.978867,93.805939 139.495010,93.926399 139.254456,93.860947 
z"/>
<path fill="#F7FAFA" opacity="1.000000" stroke="none" 
	d="
M141.882828,95.796089 
	C141.704117,95.953545 141.477921,95.841904 141.172287,95.508667 
	C141.385330,95.192276 141.632828,95.272247 141.882828,95.796089 
z"/>
<path fill="#F7FAFA" opacity="1.000000" stroke="none" 
	d="
M129.949646,95.494308 
	C129.413010,95.392731 128.824203,94.989601 128.116241,94.295227 
	C128.630539,94.400230 129.264008,94.796494 129.949646,95.494308 
z"/>
<path fill="#F7FAFA" opacity="1.000000" stroke="none" 
	d="
M121.661545,93.994019 
	C121.211632,94.271988 120.443298,94.547668 119.352844,94.781929 
	C119.801529,94.490913 120.572327,94.241318 121.661545,93.994019 
z"/>
<path fill="#F7FAFA" opacity="1.000000" stroke="none" 
	d="
M120.362320,86.009674 
	C120.806099,85.709816 121.568794,85.409828 122.655579,85.165573 
	C122.213524,85.484055 121.447372,85.746796 120.362320,86.009674 
z"/>
<path fill="#F7FAFA" opacity="1.000000" stroke="none" 
	d="
M128.278839,84.990471 
	C128.471054,84.731140 128.930710,84.468674 129.669907,84.270966 
	C129.481720,84.552933 129.014008,84.770134 128.278839,84.990471 
z"/>
<path fill="#F7FAFA" opacity="1.000000" stroke="none" 
	d="
M132.849747,96.587646 
	C132.689804,96.681053 132.397049,96.594940 132.012741,96.268639 
	C132.227142,96.069710 132.492401,96.196266 132.849747,96.587646 
z"/>
<path fill="#F7FAFA" opacity="1.000000" stroke="none" 
	d="
M138.146637,100.362381 
	C138.178680,100.182388 138.337723,100.131256 138.733963,99.999382 
	C138.738663,100.109505 138.506165,100.300369 138.146637,100.362381 
z"/>
<path fill="#F7FAFA" opacity="1.000000" stroke="none" 
	d="
M150.103333,81.414322 
	C150.375351,81.063049 150.643768,81.146309 150.781326,81.745911 
	C150.515274,81.894409 150.331696,81.756615 150.103333,81.414322 
z"/>
<path fill="#F7FAFA" opacity="1.000000" stroke="none" 
	d="
M95.872589,99.092178 
	C95.900360,99.311119 95.712860,99.591415 95.271713,99.817047 
	C95.163681,99.488579 95.376755,99.285629 95.872589,99.092178 
z"/>
<path fill="#F7FAFA" opacity="1.000000" stroke="none" 
	d="
M136.845978,97.539261 
	C136.972488,97.705994 136.508133,97.757896 136.508133,97.757896 
	C136.508133,97.757896 136.169983,97.435463 136.072632,97.223114 
	C136.260101,97.055763 136.508163,97.176353 136.845978,97.539261 
z"/>
<path fill="#F7FAFA" opacity="1.000000" stroke="none" 
	d="
M102.832077,97.070831 
	C102.939293,97.321022 102.758583,97.565498 102.259544,97.717178 
	C102.171028,97.439117 102.372002,97.252693 102.832077,97.070831 
z"/>
<path fill="#F7FAFA" opacity="1.000000" stroke="none" 
	d="
M106.845451,96.073242 
	C106.966629,96.345612 106.785194,96.602791 106.267517,96.734848 
	C106.177612,96.431900 106.381462,96.248016 106.845451,96.073242 
z"/>
<path fill="#F7FAFA" opacity="1.000000" stroke="none" 
	d="
M112.815048,95.052124 
	C112.903931,95.282288 112.738014,95.499222 112.292183,95.610046 
	C112.220680,95.347015 112.403343,95.191994 112.815048,95.052124 
z"/>
<path fill="#F7FAFA" opacity="1.000000" stroke="none" 
	d="
M133.117554,84.384369 
	C133.020905,84.251747 133.499069,84.127228 133.741272,84.175934 
	C133.983459,84.224632 133.658005,84.572563 133.658005,84.572563 
	C133.658005,84.572563 133.214188,84.516983 133.117554,84.384369 
z"/>
<path fill="#F7FAFA" opacity="1.000000" stroke="none" 
	d="
M151.086121,85.294510 
	C151.273041,85.200844 151.504303,85.373390 151.774048,85.815804 
	C151.585632,85.907928 151.358276,85.732948 151.086121,85.294510 
z"/>
<path fill="#F7FAFA" opacity="1.000000" stroke="none" 
	d="
M115.201309,86.938126 
	C115.089966,86.698044 115.260254,86.462746 115.743073,86.313850 
	C115.829521,86.574387 115.638634,86.755272 115.201309,86.938126 
z"/>
<path fill="#F7FAFA" opacity="1.000000" stroke="none" 
	d="
M153.104797,86.476517 
	C153.344620,86.168457 153.578781,86.241722 153.705048,86.763466 
	C153.469528,86.903549 153.303513,86.785515 153.104797,86.476517 
z"/>
<path fill="#F7FAFA" opacity="1.000000" stroke="none" 
	d="
M110.198730,87.935806 
	C110.089584,87.696686 110.259949,87.462837 110.739716,87.314743 
	C110.826508,87.575897 110.636215,87.756096 110.198730,87.935806 
z"/>
</svg>